<?xml version="1.0" encoding="UTF-8"?>
<svg xmlns="http://www.w3.org/2000/svg" version="1.1" viewBox="0 0 24 24">
  <defs>
    <style>
      .cls-1 {
        fill: #fff;
      }

      .cls-1, .cls-2 {
        fill-rule: evenodd;
      }

      .cls-2 {
        fill: #1769ff;
      }
    </style>
  </defs>
  <!-- Generator: Adobe Illustrator 28.6.0, SVG Export Plug-In . SVG Version: 1.2.0 Build 709)  -->
  <g>
    <g id="Layer_1">
      <g>
        <path class="cls-2" d="M4.9,0h14.2c2.7,0,4.9,2.2,4.9,4.9v14.2c0,2.7-2.2,4.9-4.9,4.9H4.9C2.2,24,0,21.8,0,19.1V4.9C0,2.2,2.2,0,4.9,0Z"/>
        <path class="cls-1" d="M14.7,14.5c.5.4,1.3.5,1.9.1.2-.1.3-.3.4-.5h1.4c-.2.7-.6,1.2-1,1.5-.5.3-1.1.5-1.7.5-.4,0-.8,0-1.2-.2-.4-.1-.7-.3-.9-.6-.3-.3-.5-.6-.6-1-.1-.4-.2-.8-.2-1.2,0-.4,0-.8.2-1.2.1-.4.3-.7.6-1,.3-.3.6-.5.9-.6.4-.2.8-.2,1.2-.2.4,0,.9,0,1.3.3.4.2.7.4.9.8.2.3.4.7.5,1.1.1.4.1.9.1,1.3h-4.2c0,.4.1.8.4,1.1h0ZM9.3,7.9c.3,0,.7,0,1,.1.3,0,.6.2.8.3.2.2.4.4.5.6.1.3.2.6.2.9,0,.4,0,.7-.3,1-.2.3-.5.5-.8.7.4.1.8.4,1.1.7.4.7.5,1.6.1,2.3-.2.3-.4.5-.6.7-.3.2-.6.3-.9.4-.3,0-.7.1-1,.1h-3.9v-8h3.8ZM9.1,14.6c.2,0,.3,0,.5,0,.1,0,.3,0,.4-.2.1,0,.2-.2.3-.3,0-.2.1-.3.1-.5,0-.4-.1-.7-.3-.9-.3-.2-.6-.3-.9-.3h-1.9v2.2h1.9ZM9,11.2c.3,0,.6,0,.8-.2.2-.2.3-.4.3-.7,0-.2,0-.3,0-.5,0-.1-.2-.2-.3-.3-.1,0-.3-.1-.4-.1-.1,0-.3,0-.5,0h-1.6v1.9h1.8,0ZM14,8.6h3.2v.8h-3.2v-.8ZM16.5,11.5c-.2-.2-.6-.3-.9-.3-.2,0-.4,0-.6.1-.2,0-.3.2-.4.3,0,.1-.2.3-.2.4,0,.1,0,.3,0,.4h2.6c0-.3-.1-.7-.4-.9h0Z"/>
      </g>
    </g>
  </g>
</svg>