<?xml version="1.0" encoding="UTF-8"?>
<svg xmlns="http://www.w3.org/2000/svg" width="24" height="24" fill="#0165E1" viewBox="0 0 24 24">
  <defs>
    <style>
      .cls-1 {
        fill: #fff;
        fill-rule: evenodd;
      }

      .cls-2 {
        fill: #1769ff;
      }
    </style>
  </defs>
  <path class="cls-2" d="M.17,12C.17,5.47,5.47.17,12,.17s11.83,5.3,11.83,11.83-5.3,11.83-11.83,11.83S.17,18.53.17,12Z"/>
  <path class="cls-1" d="M11.84,10.05c0-.46-.12-.85-.36-1.17-.4-.53-1.07-.81-2.02-.82h-3.77v7.69h3.51c.4,0,.76-.03,1.1-.1.34-.07.63-.2.88-.39.22-.16.41-.37.55-.61.23-.36.35-.77.35-1.23s-.1-.82-.3-1.13c-.2-.31-.5-.54-.9-.68.26-.13.46-.28.6-.44.24-.29.36-.66.36-1.13ZM17.1,9.37h-3.34v-.96h3.34v.96ZM14.14,12.34c.05-.37.19-.66.4-.88.21-.22.51-.33.9-.33.36,0,.65.1.9.31.24.21.37.5.4.9h-2.6ZM16.8,10.18c.4.18.73.46,1,.84.24.34.39.73.46,1.18.04.26.06.64.05,1.13h-4.2c.03.57.22.97.6,1.2.23.14.51.21.83.21.34,0,.62-.09.84-.26.12-.09.22-.22.31-.39h1.54c-.04.34-.23.68-.56,1.03-.52.55-1.24.83-2.17.83-.77,0-1.45-.23-2.03-.7-.59-.47-.88-1.23-.88-2.28,0-.99.26-1.74.79-2.27.53-.52,1.22-.79,2.06-.79.5,0,.95.09,1.36.27ZM7.24,14.41v-2.05h1.92c.33,0,.59.05.78.13.33.15.5.42.5.83,0,.47-.17.79-.51.96-.19.09-.45.14-.79.14h-1.89ZM7.24,9.39v1.7h1.9c.34,0,.61-.06.83-.19.21-.13.32-.35.32-.68,0-.36-.14-.6-.42-.71-.24-.08-.55-.12-.92-.12h-1.7Z"/>
</svg>